HIERARCHY
ROOT Hips
{
 OFFSET 0.000000 0.000000 0.000000
 CHANNELS 6 Xposition Yposition Zposition Yrotation Xrotation Zrotation
 JOINT Chest
 {
  OFFSET 0.000000 9.585900 0.002600
  CHANNELS 3 Yrotation Xrotation Zrotation
  JOINT Chest2
  {
   OFFSET 0.000000 9.601200 -0.005300
   CHANNELS 3 Yrotation Xrotation Zrotation
   JOINT Chest3
   {
    OFFSET 0.000000 9.561800 0.000000
    CHANNELS 3 Yrotation Xrotation Zrotation
    JOINT Chest4
    {
     OFFSET 0.000000 9.552100 0.000000
     CHANNELS 3 Yrotation Xrotation Zrotation
     JOINT Neck
     {
      OFFSET 0.000000 14.453000 0.000000
      CHANNELS 3 Yrotation Xrotation Zrotation
      JOINT Head
      {
       OFFSET 0.000000 8.936500 -0.011300
       CHANNELS 3 Yrotation Xrotation Zrotation
       End Site
       {
        OFFSET 0.000000 17.073600 -0.006000
       }
      }
     }
     JOINT RightCollar
     {
      OFFSET -2.921100 9.558500 0.000000
      CHANNELS 3 Yrotation Xrotation Zrotation
      JOINT RightShoulder
      {
       OFFSET -13.519700 0.000000 0.000000
       CHANNELS 3 Yrotation Xrotation Zrotation
       JOINT RightElbow
       {
        OFFSET 0.000000 -29.696600 0.000000
        CHANNELS 3 Yrotation Xrotation Zrotation
        JOINT RightWrist
        {
         OFFSET 0.000000 -24.004700 0.000000
         CHANNELS 3 Yrotation Xrotation Zrotation
         End Site
         {
          OFFSET 0.000000 -17.728500 0.000000
         }
        }
       }
      }
     }
     JOINT LeftCollar
     {
      OFFSET 2.921100 9.558500 0.000000
      CHANNELS 3 Yrotation Xrotation Zrotation
      JOINT LeftShoulder
      {
       OFFSET 13.519700 0.000000 0.000000
       CHANNELS 3 Yrotation Xrotation Zrotation
       JOINT LeftElbow
       {
        OFFSET 0.000000 -29.696600 0.000000
        CHANNELS 3 Yrotation Xrotation Zrotation
        JOINT LeftWrist
        {
         OFFSET 0.000000 -24.004700 0.000000
         CHANNELS 3 Yrotation Xrotation Zrotation
         End Site
         {
          OFFSET 0.000000 -17.728500 0.000000
         }
        }
       }
      }
     }
    }
   }
  }
 }
 JOINT RightHip
 {
  OFFSET -7.771700 -0.012900 -0.001300
  CHANNELS 3 Yrotation Xrotation Zrotation
  JOINT RightKnee
  {
   OFFSET 0.000000 -40.869800 0.001200
   CHANNELS 3 Yrotation Xrotation Zrotation
   JOINT RightAnkle
   {
    OFFSET 0.000000 -39.717900 0.002100
    CHANNELS 3 Yrotation Xrotation Zrotation
    JOINT RightToe
    {
     OFFSET 0.000000 -4.965400 11.033500
     CHANNELS 3 Yrotation Xrotation Zrotation
     End Site
     {
      OFFSET 0.000000 -1.423100 5.872300
     }
    }
   }
  }
 }
 JOINT LeftHip
 {
  OFFSET 7.771700 -0.012900 -0.001300
  CHANNELS 3 Yrotation Xrotation Zrotation
  JOINT LeftKnee
  {
   OFFSET 0.000000 -40.869800 0.001200
   CHANNELS 3 Yrotation Xrotation Zrotation
   JOINT LeftAnkle
   {
    OFFSET 0.000000 -39.717900 0.002100
    CHANNELS 3 Yrotation Xrotation Zrotation
    JOINT LeftToe
    {
     OFFSET 0.000000 -4.965400 11.033500
     CHANNELS 3 Yrotation Xrotation Zrotation
     End Site
     {
      OFFSET 0.000000 -1.423100 5.872300
     }
    }
   }
  }
 }
}
MOTION
Frames: 17
Frame Time: 0.008333
0.000000 85.388000 0.000000 0.000000 -5.767877 0.000000 0.000000 11.653817 0.000000 0.000000 -5.885947 0.000000 0.000000 -0.000000 0.000000 0.000000 -0.000000 0.000000 0.000000 12.528835 0.000000 0.000000 0.711642 0.000000 0.000000 -0.000000 0.000000 0.000000 0.000000 -90.000000 0.000000 -2.309062 0.000000 0.000000 2.309062 0.000000 0.000000 -0.000000 0.000000 0.000000 -0.000000 90.000000 0.000000 -2.309062 0.000000 0.000000 2.309062 0.000000 0.000000 8.520406 0.000000 0.000000 1.905762 0.000000 -0.000000 -4.658285 0.000000 0.000000 -0.000000 0.000000 0.000000 8.520406 0.000000 0.000000 1.905762 0.000000 -0.000000 -4.658285 0.000000 0.000000 -0.000000 0.000000
-95.635118 62.190931 18.745410 173.205777 -50.673268 -0.872181 4.896626 26.150746 1.184738 0.706548 4.295271 0.156565 1.118065 6.926251 0.281174 3.721118 21.236104 1.351835 3.102164 17.333035 2.387777 4.919894 -3.630008 3.359856 5.509083 5.362230 4.850791 -4.291684 -9.378448 -14.427615 -98.460068 -54.742880 137.842636 2.697499 -12.146199 -21.567436 -7.814688 2.868384 0.400580 1.837202 -6.543980 14.268678 99.273864 -63.549492 -128.434638 10.643146 -10.917825 2.919749 2.935257 -16.373176 -3.665906 -1.904945 59.717718 -5.184592 1.959984 -4.778141 9.993002 0.245226 -0.603321 0.094938 -3.647083 -12.622286 4.306961 30.658766 75.235881 33.188935 1.788446 -11.507636 -5.927322 0.333735 0.807807 0.147601
-95.636466 62.196301 18.744836 173.216101 -50.738181 -0.880850 4.905656 26.133741 1.192236 0.704790 4.305187 0.158697 1.114257 6.952100 0.283422 3.733660 21.185786 1.353558 3.224053 17.522130 2.495011 5.109487 -3.281169 3.520742 5.461165 5.489892 4.868559 -4.444522 -9.350350 -14.338632 -96.876965 -53.996394 136.731384 2.186248 -12.239950 -21.008383 -7.746534 3.015413 0.451663 1.995303 -6.634372 14.066068 97.384628 -62.783991 -126.989214 10.922252 -11.116761 2.878612 2.928516 -16.302406 -3.662563 -1.900338 59.710521 -5.180290 1.958629 -4.764100 9.995851 0.245339 -0.607969 0.095736 -3.646920 -12.554201 4.305826 30.645334 75.231451 33.177031 1.756972 -11.499227 -5.919346 0.348808 0.798441 0.146619
-95.639607 62.199468 18.746798 173.220855 -50.790389 -0.877776 4.912604 26.109245 1.191291 0.703812 4.316896 0.160890 1.116609 6.935410 0.283000 3.738309 21.201625 1.363110 3.343205 17.692211 2.598048 5.284960 -2.937193 3.681685 5.400985 5.599254 4.866311 -4.662068 -9.325494 -14.235295 -95.619750 -53.379462 135.902116 1.647379 -12.288445 -20.423148 -7.669336 3.141343 0.511056 2.185041 -6.732541 13.859233 95.876681 -62.086179 -125.853691 11.178044 -11.264032 2.825070 2.928117 -16.245423 -3.667990 -1.898672 59.701915 -5.178564 1.955356 -4.755543 9.997031 0.246061 -0.604565 0.098610 -3.645316 -12.500535 4.298163 30.627444 75.226459 33.156684 1.717422 -11.493923 -5.901257 0.334260 0.792978 0.139118
-95.641198 62.199142 18.752761 173.207915 -50.818707 -0.873789 4.929502 26.107511 1.201878 0.707758 4.300261 0.161474 1.117868 6.908768 0.283008 3.755234 21.205934 1.375358 3.448546 17.873325 2.701394 5.445713 -2.603244 3.841338 5.321033 5.722250 4.851953 -4.946736 -9.317845 -14.125358 -94.660675 -52.917427 135.319559 1.061947 -12.319671 -19.869684 -7.601335 3.279445 0.572371 2.407954 -6.836779 13.652912 94.680782 -61.483008 -124.981150 11.430135 -11.372717 2.768550 2.934870 -16.216123 -3.660284 -1.901957 59.687671 -5.181314 1.957140 -4.742522 9.999185 0.247460 -0.598538 0.099730 -3.633839 -12.469200 4.303363 30.596144 75.219209 33.129545 1.690939 -11.501637 -5.898262 0.297802 0.803816 0.139233
-95.643338 62.198886 18.759391 173.205827 -50.849324 -0.875495 4.939571 26.108738 1.210477 0.705533 4.314236 0.162208 1.142151 6.824216 0.287468 3.761953 21.233867 1.390640 3.539361 18.064120 2.803823 5.590725 -2.281809 3.997487 5.226021 5.863242 4.827260 -5.271308 -9.333328 -14.018086 -93.944846 -52.582846 134.913666 0.472105 -12.340229 -19.386643 -7.543587 3.428141 0.629179 2.657707 -6.939546 13.452769 93.725794 -60.987527 -124.313385 11.676539 -11.463672 2.732484 2.935221 -16.185085 -3.656503 -1.890160 59.676698 -5.169399 1.952670 -4.730081 9.997858 0.251193 -0.594693 0.102756 -3.631043 -12.438536 4.302839 30.568576 75.213618 33.106266 1.676312 -11.501983 -5.899286 0.306975 0.810188 0.141910
-95.646941 62.205371 18.760999 173.217540 -50.932118 -0.875183 4.943800 26.140305 1.215975 0.707438 4.313987 0.164353 1.146423 6.819055 0.290692 3.766753 21.247939 1.399451 3.625852 18.230247 2.899392 5.719692 -1.975709 4.148981 5.130087 5.993118 4.790351 -5.604089 -9.367470 -13.916540 -93.406068 -52.338046 134.625786 -0.053073 -12.355122 -19.001470 -7.479630 3.552159 0.680449 2.920592 -7.030275 13.266475 92.978138 -60.596881 -123.802289 11.905646 -11.541669 2.726921 2.929757 -16.094319 -3.661716 -1.884397 59.665585 -5.165908 1.948764 -4.717286 9.996864 0.252889 -0.598973 0.106869 -3.628883 -12.351677 4.280126 30.523120 75.200873 33.066401 1.682352 -11.478519 -5.895760 0.296573 0.797434 0.139510
-95.647913 62.205740 18.768583 173.206080 -50.966735 -0.875886 4.966451 26.126617 1.236541 0.716157 4.277914 0.168393 1.138130 6.866727 0.291679 3.773232 21.251429 1.407682 3.702277 18.385576 2.989443 5.832139 -1.689650 4.293248 5.035546 6.131351 4.747121 -5.934973 -9.421187 -13.820835 -92.989163 -52.152745 134.414160 -0.458846 -12.368332 -18.727206 -7.413096 3.666776 0.724561 3.182479 -7.104885 13.097652 92.429584 -60.297460 -123.414673 12.107317 -11.595048 2.738495 2.934258 -16.059707 -3.649017 -1.888110 59.652148 -5.168789 1.950212 -4.702347 9.996531 0.251091 -0.597735 0.107903 -3.620935 -12.317278 4.285160 30.514627 75.197401 33.060720 1.682323 -11.479441 -5.895505 0.292099 0.801792 0.138042
-95.649934 62.205931 18.776651 173.206595 -50.997528 -0.879058 4.975995 26.115090 1.247137 0.712735 4.287470 0.171607 1.139152 6.871506 0.293951 3.775942 21.257040 1.414902 3.767873 18.527514 3.072233 5.927124 -1.428247 4.427579 4.949497 6.277692 4.702169 -6.266103 -9.497382 -13.734075 -92.663131 -52.011618 134.255491 -0.727564 -12.383122 -18.560681 -7.342588 3.776399 0.763433 3.436570 -7.168001 12.944065 92.072478 -60.077550 -123.140393 12.281840 -11.614973 2.749373 2.933620 -16.023985 -3.640291 -1.900243 59.632267 -5.182795 1.946823 -4.694944 9.998383 0.257762 -0.587168 0.110182 -3.618791 -12.286670 4.283813 30.502594 75.186533 33.049502 1.683242 -11.475243 -5.894585 0.291113 0.807046 0.136218
-95.650459 62.211080 18.781273 173.204132 -51.062619 -0.885540 4.987032 26.144894 1.266040 0.711149 4.300321 0.173849 1.137876 6.871984 0.297181 3.776101 21.269724 1.414296 3.822644 18.649096 3.152104 6.004101 -1.194172 4.549273 4.867214 6.416307 4.666789 -6.586673 -9.581838 -13.660954 -92.423936 -51.905152 134.147001 -0.868516 -12.396544 -18.479574 -7.268880 3.882379 0.805359 3.680282 -7.223982 12.807720 91.889184 -59.930120 -122.977354 12.435762 -11.604063 2.752581 2.931826 -15.948060 -3.623526 -1.911450 59.604796 -5.199671 1.959417 -4.678923 10.005916 0.251941 -0.586628 0.108185 -3.616697 -12.218687 4.283416 30.501589 75.174331 33.051002 1.686964 -11.455082 -5.894547 0.284149 0.794657 0.132625
-95.653673 62.213540 18.788005 173.202742 -51.102503 -0.877907 4.985787 26.153766 1.268479 0.706165 4.311420 0.174107 1.136685 6.878790 0.298491 3.779623 21.277082 1.411938 3.860173 18.761067 3.223600 6.063790 -0.989793 4.652717 4.783452 6.555249 4.637040 -6.886143 -9.664011 -13.598902 -92.284442 -51.829501 134.098066 -0.909342 -12.403147 -18.453268 -7.198897 3.994052 0.845146 3.911177 -7.269900 12.691809 91.861576 -59.848170 -122.915932 12.577384 -11.567966 2.742120 2.933896 -15.902175 -3.624893 -1.914355 59.586116 -5.208122 1.961584 -4.668484 10.008555 0.249970 -0.582495 0.109684 -3.611099 -12.173552 4.263656 30.520180 75.145819 33.075067 1.689523 -11.446845 -5.899649 0.280147 0.802045 0.131506
-95.654954 62.216457 18.794828 173.205357 -51.140196 -0.884895 4.982243 26.164759 1.280538 0.700575 4.321457 0.175665 1.136119 6.891874 0.298348 3.777695 21.274716 1.413307 3.886658 18.865769 3.277468 6.104309 -0.819463 4.735448 4.712348 6.703523 4.602526 -7.163775 -9.745123 -13.541118 -92.262668 -51.796058 134.120038 -0.891868 -12.400017 -18.456105 -7.124893 4.111206 0.875464 4.127208 -7.304351 12.595375 91.967596 -59.824923 -122.944063 12.709996 -11.514922 2.718290 2.931136 -15.860194 -3.612552 -1.920804 59.570970 -5.218191 1.959824 -4.655723 10.006932 0.251107 -0.582820 0.112912 -3.612358 -12.134567 4.264454 30.516875 75.137000 33.073624 1.688907 -11.440544 -5.904488 0.282277 0.801667 0.133800
-95.657029 62.219469 18.801558 173.198433 -51.172693 -0.880054 4.979756 26.181756 1.285158 0.702464 4.334167 0.173493 1.128978 6.900782 0.303380 3.770486 21.275670 1.414835 3.903438 18.949049 3.317569 6.121133 -0.684259 4.800681 4.658478 6.847723 4.569085 -7.415097 -9.820873 -13.488256 -92.371895 -51.814849 134.217846 -0.850747 -12.382697 -18.470380 -7.049146 4.223497 0.902650 4.328015 -7.329749 12.514942 92.185976 -59.857544 -123.057327 12.825379 -11.449608 2.696330 2.935869 -15.825684 -3.606984 -1.923203 59.559372 -5.222198 1.956156 -4.641775 10.002308 0.254392 -0.586012 0.118095 -3.606282 -12.099358 4.257028 30.524867 75.124670 33.085128 1.691041 -11.436375 -5.906329 0.277361 0.804283 0.132165
-95.661936 62.219628 18.810201 173.202996 -51.176977 -0.869337 4.955837 26.181190 1.266791 0.708356 4.340326 0.172367 1.124021 6.913943 0.310469 3.761513 21.282492 1.416267 3.907606 19.008879 3.346068 6.112734 -0.582039 4.851065 4.618126 6.976357 4.543940 -7.629858 -9.878273 -13.447698 -92.620482 -51.887230 134.394553 -0.803075 -12.347521 -18.492432 -6.979283 4.328970 0.929381 4.513704 -7.343543 12.448335 92.505104 -59.938187 -123.249014 12.907396 -11.370441 2.683464 2.938121 -15.818741 -3.619453 -1.926260 59.545775 -5.226792 1.950994 -4.633744 9.998402 0.259831 -0.580960 0.123873 -3.604913 -12.094212 4.230763 30.530272 75.095225 33.099710 1.686216 -11.418096 -5.912123 0.271220 0.806121 0.130262
-95.662826 62.220980 18.818310 173.198598 -51.183702 -0.875689 4.946043 26.188063 1.280576 0.702454 4.356538 0.177099 1.138138 6.905465 0.299079 3.751804 21.296496 1.425950 3.898861 19.055972 3.363003 6.081528 -0.513799 4.887631 4.586395 7.086793 4.530099 -7.802519 -9.902182 -13.425035 -93.010962 -52.009210 134.652764 -0.751865 -12.292021 -18.524650 -6.916404 4.433412 0.954961 4.684690 -7.341938 12.398875 92.904320 -60.053290 -123.496603 12.942149 -11.284267 2.669362 2.940816 -15.803578 -3.603952 -1.924523 59.518984 -5.230225 1.953950 -4.626558 10.002230 0.259805 -0.570965 0.121425 -3.604015 -12.086458 4.238885 30.525976 75.082685 33.094517 1.692805 -11.409511 -5.915222 0.290547 0.805400 0.127631
-95.663479 62.223629 18.825150 173.173499 -51.194126 -0.866620 4.962255 26.200279 1.294927 0.701774 4.361332 0.176012 1.138797 6.908123 0.301674 3.747821 21.317756 1.438896 3.875464 19.085787 3.365872 6.031088 -0.482089 4.912240 4.559530 7.168970 4.523932 -7.934914 -9.886046 -13.418876 -93.533206 -52.170386 134.986775 -0.694235 -12.215909 -18.557081 -6.864709 4.525780 0.977433 4.844173 -7.323666 12.371495 93.356309 -60.191791 -123.780612 12.927494 -11.198996 2.641344 2.953497 -15.790378 -3.590165 -1.919905 59.501054 -5.226604 1.954290 -4.612354 9.998637 0.257843 -0.571187 0.123360 -3.588959 -12.073125 4.246029 30.529714 75.069346 33.096951 1.708834 -11.396790 -5.922286 0.272768 0.802087 0.131621
-95.665583 62.226226 18.831439 173.165412 -51.197944 -0.861407 4.953720 26.215668 1.291433 0.709061 4.359324 0.175891 1.135692 6.928520 0.305463 3.761541 21.390462 1.460250 3.846323 19.013521 3.340952 5.950319 -0.465877 4.940656 4.531199 7.166554 4.514947 -8.031363 -9.837979 -13.425489 -94.154418 -52.358809 135.375472 -0.629351 -12.126202 -18.571522 -6.849393 4.482647 0.981701 5.004115 -7.228952 12.386823 93.846055 -60.344570 -124.098489 12.873410 -11.114623 2.588863 2.958610 -15.778525 -3.588775 -1.906500 59.480816 -5.214740 1.956318 -4.613604 9.992401 0.250305 -0.558991 0.128738 -3.582713 -12.065220 4.241381 30.531423 75.053696 33.100849 1.708742 -11.395187 -5.918424 0.260298 0.807779 0.125443
